<svg width="1875" height="1782" viewBox="0 0 1875 1782" fill="none" xmlns="http://www.w3.org/2000/svg">
<rect width="1875" height="1782" fill="white"/>
<rect x="550" y="109" width="1268" height="660" rx="22" fill="#FFFBEF"/>
<rect x="1282" y="165" width="524" height="592" rx="22" fill="#FEF4DB"/>
<rect x="550" y="802" width="981" height="235" rx="22" fill="#F6F1F7"/>
<rect x="550" y="1070" width="1256" height="402" rx="22" fill="#EBF4FD"/>
<rect x="550" y="1505" width="480" height="168" rx="22" fill="#F3F3F3"/>
<rect x="788" y="865" width="731" height="160" rx="22" fill="#EFE2F3"/>
<rect x="58" y="842" width="166" height="62" rx="31" fill="black"/>
<text fill="white" xml:space="preserve" style="white-space: pre" font-family="SF Pro Display" font-size="16" font-weight="600" letter-spacing="-0.011em"><tspan x="108.165" y="878.688">Abrir app</tspan></text>
<rect x="59.5" y="942.5" width="162.984" height="59.0504" rx="29.5252" stroke="#252525" stroke-width="3"/>
<text fill="#252525" xml:space="preserve" style="white-space: pre" font-family="SF Pro Display" font-size="16" font-weight="600" letter-spacing="-0.011em"><tspan x="119.482" y="977.688">Home</tspan></text>
<rect x="284.5" y="942.5" width="162.984" height="59.0504" rx="29.5252" stroke="#252525" stroke-width="3"/>
<text fill="#252525" xml:space="preserve" style="white-space: pre" font-family="SF Pro Display" font-size="16" font-weight="600" letter-spacing="-0.011em"><tspan x="345.701" y="977.688">Menu</tspan></text>
<rect x="588.182" y="260.5" width="162.984" height="59.0504" rx="4.5" stroke="#252525" stroke-width="3"/>
<text fill="#252525" xml:space="preserve" style="white-space: pre" font-family="SF Pro Display" font-size="16" font-weight="600" letter-spacing="-0.011em"><tspan x="625.476" y="295.688">Colecciones</tspan></text>
<text fill="#252525" xml:space="preserve" style="white-space: pre" font-family="SF Pro Display" font-size="16" font-weight="600" letter-spacing="-0.011em"><tspan x="1159.1" y="1245.69">S&#xed;</tspan></text>
<text fill="#252525" xml:space="preserve" style="white-space: pre" font-family="SF Pro Display" font-size="16" font-weight="600" letter-spacing="-0.011em"><tspan x="1155.78" y="1424.69">No</tspan></text>
<rect x="584.5" y="942.5" width="162.984" height="59.0504" rx="4.5" stroke="#252525" stroke-width="3"/>
<text fill="#252525" xml:space="preserve" style="white-space: pre" font-family="SF Pro Display" font-size="16" font-weight="600" letter-spacing="-0.011em"><tspan x="646.203" y="977.688">Bolsa</tspan></text>
<rect x="584.5" y="1300.5" width="162.984" height="59.0504" rx="4.5" stroke="#252525" stroke-width="3"/>
<text fill="#252525" xml:space="preserve" style="white-space: pre" font-family="SF Pro Display" font-size="16" font-weight="600" letter-spacing="-0.011em"><tspan x="639.877" y="1335.69">Cuenta</tspan></text>
<rect x="1574.5" y="1134.5" width="208" height="59.0504" rx="4.5" stroke="#252525" stroke-width="3"/>
<text fill="#252525" xml:space="preserve" style="white-space: pre" font-family="SF Pro Display" font-size="16" font-weight="600" letter-spacing="-0.011em"><tspan x="1612.18" y="1169.69">Descargar e-ticket</tspan></text>
<rect x="1574.5" y="1210.5" width="208" height="59.0504" rx="4.5" stroke="#252525" stroke-width="3"/>
<text fill="#252525" xml:space="preserve" style="white-space: pre" font-family="SF Pro Display" font-size="16" font-weight="600" letter-spacing="-0.011em"><tspan x="1614.71" y="1245.69">Editar direcciones</tspan></text>
<rect x="1574.5" y="1286.5" width="208" height="59.0504" rx="4.5" stroke="#252525" stroke-width="3"/>
<text fill="#252525" xml:space="preserve" style="white-space: pre" font-family="SF Pro Display" font-size="14" font-weight="600" letter-spacing="-0.011em"><tspan x="1604.86" y="1320.98">Editar m&#xe9;todos de pago</tspan></text>
<rect x="834.5" y="1590.5" width="172.549" height="59.0504" rx="4.5" stroke="#252525" stroke-width="3"/>
<text fill="#252525" xml:space="preserve" style="white-space: pre" font-family="SF Pro Display" font-size="16" font-weight="600" letter-spacing="-0.011em"><tspan x="884.932" y="1625.69">Contactar</tspan></text>
<rect x="834.5" y="942.5" width="162.984" height="59.0504" rx="4.5" stroke="#252525" stroke-width="3"/>
<text fill="#252525" xml:space="preserve" style="white-space: pre" font-family="SF Pro Display" font-size="16" font-weight="600" letter-spacing="-0.011em"><tspan x="897.865" y="977.688">Pago</tspan></text>
<rect x="834.939" y="534.43" width="162.984" height="59.0504" rx="4.5" stroke="#252525" stroke-width="3"/>
<text fill="#252525" xml:space="preserve" style="white-space: pre" font-family="SF Pro Display" font-size="16" font-weight="600" letter-spacing="-0.011em"><tspan x="892.303" y="569.617">Anillos</tspan></text>
<rect x="834.5" y="260.43" width="162.984" height="59.0504" rx="4.5" stroke="#252525" stroke-width="3"/>
<text fill="#252525" xml:space="preserve" style="white-space: pre" font-family="SF Pro Display" font-size="16" font-weight="600" letter-spacing="-0.011em"><tspan x="883.727" y="295.617">Essential</tspan></text>
<rect x="1331.5" y="1210.55" width="162.984" height="59.0504" rx="4.5" stroke="#252525" stroke-width="3"/>
<text fill="#252525" xml:space="preserve" style="white-space: pre" font-family="SF Pro Display" font-size="16" font-weight="600" letter-spacing="-0.011em"><tspan x="1370.72" y="1245.74">Direcciones</tspan></text>
<rect x="1328.5" y="942.5" width="167" height="59" rx="4.5" stroke="#252525" stroke-width="3"/>
<text fill="#252525" xml:space="preserve" style="white-space: pre" font-family="SF Pro Display" font-size="16" font-weight="600" letter-spacing="-0.011em"><tspan x="1346.27" y="977.688">Seguir comprando</tspan></text>
<rect x="1081.52" y="942.5" width="163" height="59" rx="4.5" stroke="#252525" stroke-width="3"/>
<text fill="#252525" xml:space="preserve" style="white-space: pre" font-family="SF Pro Display" font-size="14" font-weight="600" letter-spacing="-0.011em"><tspan x="1097.73" y="976.977">Confirmaci&#xf3;n pedido</tspan></text>
<path d="M1002.98 971.025C1002.43 971.025 1001.98 971.473 1001.98 972.025C1001.98 972.577 1002.43 973.025 1002.98 973.025V971.025ZM1076.72 972.707C1077.11 972.317 1077.11 971.683 1076.72 971.293L1070.36 964.929C1069.97 964.538 1069.34 964.538 1068.95 964.929C1068.56 965.319 1068.56 965.953 1068.95 966.343L1074.6 972L1068.95 977.657C1068.56 978.047 1068.56 978.681 1068.95 979.071C1069.34 979.462 1069.97 979.462 1070.36 979.071L1076.72 972.707ZM1002.98 973.025H1039.49V971.025H1002.98V973.025ZM1039.51 973H1076.02V971H1039.51V973ZM1040.5 972.013C1040.5 972.558 1040.06 973 1039.51 973V971C1038.95 971 1038.5 971.453 1038.5 972.013H1040.5ZM1039.49 973.025C1040.05 973.025 1040.5 972.572 1040.5 972.013H1038.5C1038.5 971.467 1038.94 971.025 1039.49 971.025V973.025Z" fill="#494949"/>
<rect x="1574.5" y="298.5" width="207.507" height="59.0504" rx="4.5" stroke="#252525" stroke-width="3"/>
<text fill="#252525" xml:space="preserve" style="white-space: pre" font-family="SF Pro Display" font-size="16" font-weight="600" letter-spacing="-0.011em"><tspan x="1612.53" y="333.688">Seguir comprando</tspan></text>
<rect x="1574.5" y="610.5" width="207.507" height="59.0504" rx="4.5" stroke="#252525" stroke-width="3"/>
<text fill="#252525" xml:space="preserve" style="white-space: pre" font-family="SF Pro Display" font-size="16" font-weight="600" letter-spacing="-0.011em"><tspan x="1612.53" y="645.688">Seguir comprando</tspan></text>
<rect x="588.182" y="572.5" width="162.984" height="59.0504" rx="4.5" stroke="#252525" stroke-width="3"/>
<text fill="#252525" xml:space="preserve" style="white-space: pre" font-family="SF Pro Display" font-size="16" font-weight="600" letter-spacing="-0.011em"><tspan x="645.348" y="607.688">Tienda</tspan></text>
<rect x="1081.5" y="572.5" width="162.984" height="59.0504" rx="4.5" stroke="#252525" stroke-width="3"/>
<text fill="#252525" xml:space="preserve" style="white-space: pre" font-family="SF Pro Display" font-size="16" font-weight="600" letter-spacing="-0.011em"><tspan x="1130.86" y="607.688">Art&#xed;culos</tspan></text>
<rect x="1081.5" y="260.5" width="162.984" height="59.0504" rx="4.5" stroke="#252525" stroke-width="3"/>
<text fill="#252525" xml:space="preserve" style="white-space: pre" font-family="SF Pro Display" font-size="16" font-weight="600" letter-spacing="-0.011em"><tspan x="1130.86" y="295.688">Art&#xed;culos</tspan></text>
<rect x="1328.5" y="260.5" width="162.984" height="59.0504" rx="4.5" stroke="#252525" stroke-width="3"/>
<text fill="#252525" xml:space="preserve" style="white-space: pre" font-family="SF Pro Display" font-size="16" font-weight="600" letter-spacing="-0.011em"><tspan x="1359.64" y="295.688">A&#xf1;adir a bolsa</tspan></text>
<text fill="#FFB03B" xml:space="preserve" style="white-space: pre" font-family="SF Pro Display" font-size="30" font-weight="600" letter-spacing="-0.011em"><tspan x="579.11" y="160.664">Visualizar cat&#xe1;logo</tspan></text>
<text fill="#FFB03B" xml:space="preserve" style="white-space: pre" font-family="SF Pro Display" font-size="24" font-weight="600" letter-spacing="-0.011em"><tspan x="1304.48" y="207.531">A&#xf1;adir a bolsa</tspan></text>
<text fill="#896E8F" xml:space="preserve" style="white-space: pre" font-family="SF Pro Display" font-size="30" font-weight="600" letter-spacing="-0.011em"><tspan x="579.387" y="853.664">Comprar</tspan></text>
<text fill="#187BE0" xml:space="preserve" style="white-space: pre" font-family="SF Pro Display" font-size="30" font-weight="600" letter-spacing="-0.011em"><tspan x="579.39" y="1121.66">Gestionar cuenta</tspan></text>
<text fill="#909696" xml:space="preserve" style="white-space: pre" font-family="SF Pro Display" font-size="30" font-weight="600" letter-spacing="-0.011em"><tspan x="579" y="1556.66">Servicio al cliente</tspan></text>
<text fill="#896E8F" xml:space="preserve" style="white-space: pre" font-family="SF Pro Display" font-size="24" font-weight="600" letter-spacing="-0.011em"><tspan x="810" y="907.531">Realizar pedido</tspan></text>
<rect x="1574.5" y="222.5" width="208" height="59.0504" rx="4.5" stroke="#252525" stroke-width="3"/>
<text fill="#252525" xml:space="preserve" style="white-space: pre" font-family="SF Pro Display" font-size="16" font-weight="600" letter-spacing="-0.011em"><tspan x="1646.91" y="257.688">Ir a bolsa</tspan></text>
<rect x="1574.5" y="534.5" width="208" height="59.0504" rx="4.5" stroke="#252525" stroke-width="3"/>
<text fill="#252525" xml:space="preserve" style="white-space: pre" font-family="SF Pro Display" font-size="16" font-weight="600" letter-spacing="-0.011em"><tspan x="1646.91" y="569.688">Ir a bolsa</tspan></text>
<rect x="1328.5" y="572.5" width="162.984" height="59.0504" rx="4.5" stroke="#252525" stroke-width="3"/>
<text fill="#252525" xml:space="preserve" style="white-space: pre" font-family="SF Pro Display" font-size="16" font-weight="600" letter-spacing="-0.011em"><tspan x="1359.64" y="607.688">A&#xf1;adir a bolsa</tspan></text>
<rect x="584.5" y="1590.5" width="162.984" height="59.0504" rx="4.5" stroke="#252525" stroke-width="3"/>
<text fill="#252525" xml:space="preserve" style="white-space: pre" font-family="SF Pro Display" font-size="16" font-weight="600" letter-spacing="-0.011em"><tspan x="643.11" y="1625.69">Ayuda</tspan></text>
<path d="M853.414 1330L919 1264.41L984.586 1330L919 1395.59L853.414 1330Z" stroke="#252525" stroke-width="2"/>
<text fill="#252525" xml:space="preserve" style="white-space: pre" font-family="SF Pro Display" font-size="14" font-weight="600" letter-spacing="-0.011em"><tspan x="901.671" y="1334.98">Login</tspan></text>
<rect x="834.939" y="458.5" width="162.984" height="59.0504" rx="4.5" stroke="#252525" stroke-width="3"/>
<text fill="#252525" xml:space="preserve" style="white-space: pre" font-family="SF Pro Display" font-size="16" font-weight="600" letter-spacing="-0.011em"><tspan x="878.778" y="493.688">Brazaletes</tspan></text>
<rect x="834.5" y="184.5" width="162.984" height="59.0504" rx="4.5" stroke="#252525" stroke-width="3"/>
<text fill="#252525" xml:space="preserve" style="white-space: pre" font-family="SF Pro Display" font-size="16" font-weight="600" letter-spacing="-0.011em"><tspan x="904.756" y="219.688">Init</tspan></text>
<rect x="1331.5" y="1134.5" width="162.984" height="59.0504" rx="4.5" stroke="#252525" stroke-width="3"/>
<text fill="#252525" xml:space="preserve" style="white-space: pre" font-family="SF Pro Display" font-size="16" font-weight="600" letter-spacing="-0.011em"><tspan x="1384.11" y="1169.69">Pedidos</tspan></text>
<rect x="834.939" y="610.36" width="162.984" height="59.0504" rx="4.5" stroke="#252525" stroke-width="3"/>
<text fill="#252525" xml:space="preserve" style="white-space: pre" font-family="SF Pro Display" font-size="16" font-weight="600" letter-spacing="-0.011em"><tspan x="892.77" y="645.548">Aretes</tspan></text>
<rect x="834.5" y="336.36" width="162.984" height="59.0504" rx="4.5" stroke="#252525" stroke-width="3"/>
<text fill="#252525" xml:space="preserve" style="white-space: pre" font-family="SF Pro Display" font-size="16" font-weight="600" letter-spacing="-0.011em"><tspan x="884.209" y="371.548">Midnight</tspan></text>
<rect x="1331.5" y="1286.6" width="162.984" height="59.0504" rx="4.5" stroke="#252525" stroke-width="3"/>
<text fill="#252525" xml:space="preserve" style="white-space: pre" font-family="SF Pro Display" font-size="16" font-weight="600" letter-spacing="-0.011em"><tspan x="1351.2" y="1321.79">M&#xe9;todos de pago</tspan></text>
<rect x="834.5" y="686.29" width="162.984" height="59.0504" rx="4.5" stroke="#252525" stroke-width="3"/>
<text fill="#252525" xml:space="preserve" style="white-space: pre" font-family="SF Pro Display" font-size="16" font-weight="600" letter-spacing="-0.011em"><tspan x="886.725" y="721.478">Collares</tspan></text>
<rect x="1331.5" y="1389.5" width="162.984" height="59.0504" rx="4.5" stroke="#252525" stroke-width="3"/>
<text fill="#252525" xml:space="preserve" style="white-space: pre" font-family="SF Pro Display" font-size="16" font-weight="600" letter-spacing="-0.011em"><tspan x="1362.42" y="1424.69">Modo invitado</tspan></text>
<path d="M142 908C142 907.448 141.552 907 141 907C140.448 907 140 907.448 140 908H142ZM140.285 937.707C140.675 938.098 141.309 938.098 141.699 937.707L148.063 931.343C148.454 930.953 148.454 930.319 148.063 929.929C147.672 929.538 147.039 929.538 146.649 929.929L140.992 935.586L135.335 929.929C134.945 929.538 134.311 929.538 133.921 929.929C133.53 930.319 133.53 930.953 133.921 931.343L140.285 937.707ZM140 908V922.496H142V908H140ZM139.992 922.504V937H141.992V922.504H139.992ZM140.996 921.5C140.441 921.5 139.992 921.95 139.992 922.504H141.992C141.992 923.054 141.546 923.5 140.996 923.5V921.5ZM140 922.496C140 921.946 140.446 921.5 140.996 921.5V923.5C141.55 923.5 142 923.051 142 922.496H140Z" fill="#747474"/>
<path d="M227.984 971.025C227.432 971.025 226.984 971.473 226.984 972.025C226.984 972.577 227.432 973.025 227.984 973.025V971.025ZM279.707 972.732C280.098 972.342 280.098 971.709 279.707 971.318L273.343 964.954C272.953 964.564 272.32 964.564 271.929 964.954C271.539 965.345 271.539 965.978 271.929 966.368L277.586 972.025L271.929 977.682C271.539 978.073 271.539 978.706 271.929 979.096C272.32 979.487 272.953 979.487 273.343 979.096L279.707 972.732ZM227.984 973.025H279V971.025H227.984V973.025Z" fill="#747474"/>
<path d="M452.983 971.025C452.431 971.025 451.983 971.473 451.983 972.025C451.983 972.578 452.431 973.025 452.983 973.025V971.025ZM579.707 972.732C580.097 972.342 580.097 971.709 579.707 971.318L573.343 964.954C572.952 964.564 572.319 964.564 571.929 964.954C571.538 965.345 571.538 965.978 571.929 966.369L577.585 972.025L571.929 977.682C571.538 978.073 571.538 978.706 571.929 979.096C572.319 979.487 572.952 979.487 573.343 979.096L579.707 972.732ZM452.983 973.025H579V971.025H452.983V973.025Z" fill="#747474"/>
<path d="M452.984 971.025C452.432 971.025 451.984 971.473 451.984 972.025C451.984 972.577 452.432 973.025 452.984 973.025V971.025ZM579.707 1330.73C580.098 1330.34 580.098 1329.71 579.707 1329.32L573.343 1322.95C572.953 1322.56 572.32 1322.56 571.929 1322.95C571.539 1323.34 571.539 1323.98 571.929 1324.37L577.586 1330.03L571.929 1335.68C571.539 1336.07 571.539 1336.71 571.929 1337.1C572.32 1337.49 572.953 1337.49 573.343 1337.1L579.707 1330.73ZM452.984 973.025H491.992V971.025H452.984V973.025ZM514.992 996.025V1306.03H516.992V996.025H514.992ZM539.992 1331.03H579V1329.03H539.992V1331.03ZM514.992 1306.03C514.992 1319.83 526.185 1331.03 539.992 1331.03V1329.03C527.289 1329.03 516.992 1318.73 516.992 1306.03H514.992ZM491.992 973.025C504.695 973.025 514.992 983.323 514.992 996.025H516.992C516.992 982.218 505.799 971.025 491.992 971.025V973.025Z" fill="#747474"/>
<path d="M452.984 971.025C452.432 971.025 451.984 971.473 451.984 972.025C451.984 972.577 452.432 973.025 452.984 973.025V971.025ZM583.389 602.732C583.78 602.342 583.78 601.709 583.389 601.318L577.025 594.954C576.635 594.564 576.002 594.564 575.611 594.954C575.221 595.345 575.221 595.978 575.611 596.368L581.268 602.025L575.611 607.682C575.221 608.073 575.221 608.706 575.611 609.096C576.002 609.487 576.635 609.487 577.025 609.096L583.389 602.732ZM452.984 973.025H493.833V971.025H452.984V973.025ZM518.833 948.025V626.025H516.833V948.025H518.833ZM541.833 603.025H582.682V601.025H541.833V603.025ZM518.833 626.025C518.833 613.323 529.131 603.025 541.833 603.025V601.025C528.026 601.025 516.833 612.218 516.833 626.025H518.833ZM493.833 973.025C507.64 973.025 518.833 961.832 518.833 948.025H516.833C516.833 960.728 506.536 971.025 493.833 971.025V973.025Z" fill="#747474"/>
<path d="M452.984 971.025C452.432 971.025 451.984 971.473 451.984 972.025C451.984 972.577 452.432 973.025 452.984 973.025V971.025ZM583.389 290.732C583.78 290.342 583.78 289.709 583.389 289.318L577.025 282.954C576.635 282.564 576.002 282.564 575.611 282.954C575.221 283.345 575.221 283.978 575.611 284.368L581.268 290.025L575.611 295.682C575.221 296.073 575.221 296.706 575.611 297.096C576.002 297.487 576.635 297.487 577.025 297.096L583.389 290.732ZM452.984 973.025H493.833V971.025H452.984V973.025ZM518.833 948.025V314.025H516.833V948.025H518.833ZM541.833 291.025H582.682V289.025H541.833V291.025ZM518.833 314.025C518.833 301.323 529.131 291.025 541.833 291.025V289.025C528.026 289.025 516.833 300.218 516.833 314.025H518.833ZM493.833 973.025C507.64 973.025 518.833 961.832 518.833 948.025H516.833C516.833 960.728 506.536 971.025 493.833 971.025V973.025Z" fill="#747474"/>
<path d="M452.983 971.025C452.431 971.025 451.983 971.473 451.983 972.025C451.983 972.578 452.431 973.025 452.983 973.025V971.025ZM579.707 1620.73C580.097 1620.34 580.097 1619.71 579.707 1619.32L573.343 1612.95C572.952 1612.56 572.319 1612.56 571.929 1612.95C571.538 1613.34 571.538 1613.98 571.929 1614.37L577.585 1620.03L571.929 1625.68C571.538 1626.07 571.538 1626.71 571.929 1627.1C572.319 1627.49 572.952 1627.49 573.343 1627.1L579.707 1620.73ZM452.983 973.025H491.991V971.025H452.983V973.025ZM514.992 996.025V1596.03H516.992V996.025H514.992ZM539.992 1621.03H579V1619.03H539.992V1621.03ZM514.992 1596.03C514.992 1609.83 526.184 1621.03 539.992 1621.03V1619.03C527.289 1619.03 516.992 1608.73 516.992 1596.03H514.992ZM491.991 973.025C504.694 973.025 514.992 983.323 514.992 996.025H516.992C516.992 982.218 505.799 971.025 491.991 971.025V973.025Z" fill="#747474"/>
<path d="M752.984 1619.03C752.432 1619.03 751.984 1619.47 751.984 1620.03C751.984 1620.58 752.432 1621.03 752.984 1621.03V1619.03ZM829.707 1620.73C830.098 1620.34 830.098 1619.71 829.707 1619.32L823.343 1612.95C822.953 1612.56 822.32 1612.56 821.929 1612.95C821.539 1613.34 821.539 1613.98 821.929 1614.37L827.586 1620.03L821.929 1625.68C821.539 1626.07 821.539 1626.71 821.929 1627.1C822.32 1627.49 822.953 1627.49 823.343 1627.1L829.707 1620.73ZM752.984 1621.03H829V1619.03H752.984V1621.03Z" fill="#747474"/>
<path d="M752.984 1329.03C752.432 1329.03 751.984 1329.47 751.984 1330.03C751.984 1330.58 752.432 1331.03 752.984 1331.03V1329.03ZM848.707 1330.71C849.098 1330.32 849.098 1329.68 848.707 1329.29L842.343 1322.93C841.953 1322.54 841.32 1322.54 840.929 1322.93C840.539 1323.32 840.539 1323.95 840.929 1324.34L846.586 1330L840.929 1335.66C840.539 1336.05 840.539 1336.68 840.929 1337.07C841.32 1337.46 841.953 1337.46 842.343 1337.07L848.707 1330.71ZM752.984 1331.03H800.479V1329.03H752.984V1331.03ZM800.505 1331H848V1329H800.505V1331ZM801.492 1330.01C801.492 1330.56 801.05 1331 800.505 1331V1329C799.945 1329 799.492 1329.45 799.492 1330.01H801.492ZM800.479 1331.03C801.039 1331.03 801.492 1330.57 801.492 1330.01H799.492C799.492 1329.47 799.934 1329.03 800.479 1329.03V1331.03Z" fill="#747474"/>
<path d="M990 1329C989.448 1329 989 1329.45 989 1330C989 1330.55 989.448 1331 990 1331V1329ZM1142.71 1240.71C1143.1 1240.32 1143.1 1239.68 1142.71 1239.29L1136.34 1232.93C1135.95 1232.54 1135.32 1232.54 1134.93 1232.93C1134.54 1233.32 1134.54 1233.95 1134.93 1234.34L1140.59 1240L1134.93 1245.66C1134.54 1246.05 1134.54 1246.68 1134.93 1247.07C1135.32 1247.46 1135.95 1247.46 1136.34 1247.07L1142.71 1240.71ZM990 1331H1042V1329H990V1331ZM1067 1306V1264H1065V1306H1067ZM1090 1241H1142V1239H1090V1241ZM1067 1264C1067 1251.3 1077.3 1241 1090 1241V1239C1076.19 1239 1065 1250.19 1065 1264H1067ZM1042 1331C1055.81 1331 1067 1319.81 1067 1306H1065C1065 1318.7 1054.7 1329 1042 1329V1331Z" fill="#747474"/>
<path d="M990 1329C989.448 1329 989 1329.45 989 1330C989 1330.55 989.448 1331 990 1331V1329ZM1142.71 1419.71C1143.1 1419.32 1143.1 1418.68 1142.71 1418.29L1136.34 1411.93C1135.95 1411.54 1135.32 1411.54 1134.93 1411.93C1134.54 1412.32 1134.54 1412.95 1134.93 1413.34L1140.59 1419L1134.93 1424.66C1134.54 1425.05 1134.54 1425.68 1134.93 1426.07C1135.32 1426.46 1135.95 1426.46 1136.34 1426.07L1142.71 1419.71ZM990 1331H1042V1329H990V1331ZM1065 1354V1395H1067V1354H1065ZM1090 1420H1142V1418H1090V1420ZM1065 1395C1065 1408.81 1076.19 1420 1090 1420V1418C1077.3 1418 1067 1407.7 1067 1395H1065ZM1042 1331C1054.7 1331 1065 1341.3 1065 1354H1067C1067 1340.19 1055.81 1329 1042 1329V1331Z" fill="#747474"/>
<path d="M1190 1418C1189.45 1418 1189 1418.45 1189 1419C1189 1419.55 1189.45 1420 1190 1420V1418ZM1326.71 1419.73C1327.1 1419.34 1327.1 1418.71 1326.71 1418.32L1320.34 1411.95C1319.95 1411.56 1319.32 1411.56 1318.93 1411.95C1318.54 1412.34 1318.54 1412.98 1318.93 1413.37L1324.59 1419.03L1318.93 1424.68C1318.54 1425.07 1318.54 1425.71 1318.93 1426.1C1319.32 1426.49 1319.95 1426.49 1320.34 1426.1L1326.71 1419.73ZM1190 1420H1257.99V1418H1190V1420ZM1258.01 1420.03H1326V1418.03H1258.01V1420.03ZM1257 1419.01C1257 1419.57 1257.45 1420.03 1258.01 1420.03V1418.03C1258.56 1418.03 1259 1418.47 1259 1419.01H1257ZM1257.99 1420C1257.44 1420 1257 1419.56 1257 1419.01H1259C1259 1418.45 1258.55 1418 1257.99 1418V1420Z" fill="#747474"/>
<path d="M1190 1239C1189.45 1239 1189 1239.45 1189 1240C1189 1240.55 1189.45 1241 1190 1241V1239ZM1326.71 1240.78C1327.1 1240.39 1327.1 1239.76 1326.71 1239.37L1320.34 1233C1319.95 1232.61 1319.32 1232.61 1318.93 1233C1318.54 1233.39 1318.54 1234.03 1318.93 1234.42L1324.59 1240.08L1318.93 1245.73C1318.54 1246.12 1318.54 1246.76 1318.93 1247.15C1319.32 1247.54 1319.95 1247.54 1320.34 1247.15L1326.71 1240.78ZM1190 1241H1257.96V1239H1190V1241ZM1258.04 1241.08H1326V1239.08H1258.04V1241.08ZM1257 1240.04C1257 1240.61 1257.46 1241.08 1258.04 1241.08V1239.08C1258.57 1239.08 1259 1239.51 1259 1240.04H1257ZM1257.96 1241C1257.43 1241 1257 1240.57 1257 1240.04H1259C1259 1239.46 1258.54 1239 1257.96 1239V1241Z" fill="#747474"/>
<path d="M1190 1239C1189.45 1239 1189 1239.45 1189 1240C1189 1240.55 1189.45 1241 1190 1241V1239ZM1326.71 1164.73C1327.1 1164.34 1327.1 1163.71 1326.71 1163.32L1320.34 1156.95C1319.95 1156.56 1319.32 1156.56 1318.93 1156.95C1318.54 1157.34 1318.54 1157.98 1318.93 1158.37L1324.59 1164.02L1318.93 1169.68C1318.54 1170.07 1318.54 1170.71 1318.93 1171.1C1319.32 1171.49 1319.95 1171.49 1320.34 1171.1L1326.71 1164.73ZM1190 1241H1234V1239H1190V1241ZM1259 1216V1188.02H1257V1216H1259ZM1282 1165.02H1326V1163.02H1282V1165.02ZM1259 1188.02C1259 1175.32 1269.3 1165.02 1282 1165.02V1163.02C1268.19 1163.02 1257 1174.22 1257 1188.02H1259ZM1234 1241C1247.81 1241 1259 1229.81 1259 1216H1257C1257 1228.7 1246.7 1239 1234 1239V1241Z" fill="#747474"/>
<path d="M1190 1239C1189.45 1239 1189 1239.45 1189 1240C1189 1240.55 1189.45 1241 1190 1241V1239ZM1326.71 1316.83C1327.1 1316.44 1327.1 1315.81 1326.71 1315.42L1320.34 1309.05C1319.95 1308.66 1319.32 1308.66 1318.93 1309.05C1318.54 1309.45 1318.54 1310.08 1318.93 1310.47L1324.59 1316.13L1318.93 1321.78C1318.54 1322.17 1318.54 1322.81 1318.93 1323.2C1319.32 1323.59 1319.95 1323.59 1320.34 1323.2L1326.71 1316.83ZM1190 1241H1234V1239H1190V1241ZM1257 1264V1292.13H1259V1264H1257ZM1282 1317.13H1326V1315.13H1282V1317.13ZM1257 1292.13C1257 1305.93 1268.19 1317.13 1282 1317.13V1315.13C1269.3 1315.13 1259 1304.83 1259 1292.13H1257ZM1234 1241C1246.7 1241 1257 1251.3 1257 1264H1259C1259 1250.19 1247.81 1239 1234 1239V1241Z" fill="#747474"/>
<path d="M1499.98 1163.03C1499.43 1163.03 1498.98 1163.47 1498.98 1164.03C1498.98 1164.58 1499.43 1165.03 1499.98 1165.03V1163.03ZM1569.71 1164.73C1570.1 1164.34 1570.1 1163.71 1569.71 1163.32L1563.34 1156.95C1562.95 1156.56 1562.32 1156.56 1561.93 1156.95C1561.54 1157.34 1561.54 1157.98 1561.93 1158.37L1567.59 1164.03L1561.93 1169.68C1561.54 1170.07 1561.54 1170.71 1561.93 1171.1C1562.32 1171.49 1562.95 1171.49 1563.34 1171.1L1569.71 1164.73ZM1499.98 1165.03H1569V1163.03H1499.98V1165.03Z" fill="#747474"/>
<path d="M1499.98 1239.08C1499.43 1239.08 1498.98 1239.52 1498.98 1240.08C1498.98 1240.63 1499.43 1241.08 1499.98 1241.08V1239.08ZM1569.71 1240.73C1570.1 1240.34 1570.1 1239.71 1569.71 1239.32L1563.34 1232.95C1562.95 1232.56 1562.32 1232.56 1561.93 1232.95C1561.54 1233.34 1561.54 1233.98 1561.93 1234.37L1567.59 1240.03L1561.93 1245.68C1561.54 1246.07 1561.54 1246.71 1561.93 1247.1C1562.32 1247.49 1562.95 1247.49 1563.34 1247.1L1569.71 1240.73ZM1499.98 1241.08H1534.47V1239.08H1499.98V1241.08ZM1534.52 1241.03H1569V1239.03H1534.52V1241.03ZM1535.49 1240.05C1535.49 1240.59 1535.06 1241.03 1534.52 1241.03V1239.03C1533.95 1239.03 1533.49 1239.48 1533.49 1240.05H1535.49ZM1534.47 1241.08C1535.03 1241.08 1535.49 1240.62 1535.49 1240.05H1533.49C1533.49 1239.51 1533.93 1239.08 1534.47 1239.08V1241.08Z" fill="#747474"/>
<path d="M1499.98 1315.13C1499.43 1315.13 1498.98 1315.57 1498.98 1316.13C1498.98 1316.68 1499.43 1317.13 1499.98 1317.13V1315.13ZM1569.71 1316.73C1570.1 1316.34 1570.1 1315.71 1569.71 1315.32L1563.34 1308.95C1562.95 1308.56 1562.32 1308.56 1561.93 1308.95C1561.54 1309.34 1561.54 1309.98 1561.93 1310.37L1567.59 1316.03L1561.93 1321.68C1561.54 1322.07 1561.54 1322.71 1561.93 1323.1C1562.32 1323.49 1562.95 1323.49 1563.34 1323.1L1569.71 1316.73ZM1499.98 1317.13H1534.44V1315.13H1499.98V1317.13ZM1534.54 1317.03H1569V1315.03H1534.54V1317.03ZM1535.49 1316.08C1535.49 1316.6 1535.07 1317.03 1534.54 1317.03V1315.03C1533.96 1315.03 1533.49 1315.5 1533.49 1316.08H1535.49ZM1534.44 1317.13C1535.02 1317.13 1535.49 1316.66 1535.49 1316.08H1533.49C1533.49 1315.55 1533.92 1315.13 1534.44 1315.13V1317.13Z" fill="#747474"/>
<path d="M752.984 971.025C752.432 971.025 751.984 971.473 751.984 972.025C751.984 972.577 752.432 973.025 752.984 973.025V971.025ZM829.707 972.732C830.098 972.342 830.098 971.709 829.707 971.318L823.343 964.954C822.953 964.564 822.32 964.564 821.929 964.954C821.539 965.345 821.539 965.978 821.929 966.368L827.586 972.025L821.929 977.682C821.539 978.073 821.539 978.706 821.929 979.096C822.32 979.487 822.953 979.487 823.343 979.096L829.707 972.732ZM752.984 973.025H829V971.025H752.984V973.025Z" fill="#747474"/>
<path d="M756.666 289.025C756.114 289.025 755.666 289.473 755.666 290.025C755.666 290.577 756.114 291.025 756.666 291.025V289.025ZM829.707 214.732C830.098 214.342 830.098 213.709 829.707 213.318L823.343 206.954C822.953 206.564 822.32 206.564 821.929 206.954C821.539 207.345 821.539 207.978 821.929 208.368L827.586 214.025L821.929 219.682C821.539 220.073 821.539 220.706 821.929 221.096C822.32 221.487 822.953 221.487 823.343 221.096L829.707 214.732ZM756.666 291.025H768.833V289.025H756.666V291.025ZM793.833 266.025V238.025H791.833V266.025H793.833ZM816.833 215.025H829V213.025H816.833V215.025ZM793.833 238.025C793.833 225.323 804.131 215.025 816.833 215.025V213.025C803.026 213.025 791.833 224.218 791.833 238.025H793.833ZM768.833 291.025C782.64 291.025 793.833 279.832 793.833 266.025H791.833C791.833 278.728 781.536 289.025 768.833 289.025V291.025Z" fill="#747474"/>
<path d="M756.666 289.025C756.114 289.025 755.666 289.473 755.666 290.025C755.666 290.577 756.114 291.025 756.666 291.025V289.025ZM829.707 290.662C830.098 290.272 830.098 289.638 829.707 289.248L823.343 282.884C822.953 282.493 822.32 282.493 821.929 282.884C821.539 283.275 821.539 283.908 821.929 284.298L827.586 289.955L821.929 295.612C821.539 296.002 821.539 296.636 821.929 297.026C822.32 297.417 822.953 297.417 823.343 297.026L829.707 290.662ZM756.666 291.025H792.798V289.025H756.666V291.025ZM792.868 290.955H829V288.955H792.868V290.955ZM793.833 289.99C793.833 290.523 793.401 290.955 792.868 290.955V288.955C792.296 288.955 791.833 289.418 791.833 289.99H793.833ZM792.798 291.025C793.37 291.025 793.833 290.562 793.833 289.99H791.833C791.833 289.457 792.265 289.025 792.798 289.025V291.025Z" fill="#747474"/>
<path d="M756.666 289.025C756.114 289.025 755.666 289.473 755.666 290.025C755.666 290.577 756.114 291.025 756.666 291.025V289.025ZM829.707 366.592C830.098 366.202 830.098 365.569 829.707 365.178L823.343 358.814C822.953 358.424 822.32 358.424 821.929 358.814C821.539 359.205 821.539 359.838 821.929 360.228L827.586 365.885L821.929 371.542C821.539 371.933 821.539 372.566 821.929 372.956C822.32 373.347 822.953 373.347 823.343 372.956L829.707 366.592ZM756.666 291.025H768.833V289.025H756.666V291.025ZM791.833 314.025V341.885H793.833V314.025H791.833ZM816.833 366.885H829V364.885H816.833V366.885ZM791.833 341.885C791.833 355.692 803.026 366.885 816.833 366.885V364.885C804.131 364.885 793.833 354.588 793.833 341.885H791.833ZM768.833 291.025C781.536 291.025 791.833 301.323 791.833 314.025H793.833C793.833 300.218 782.64 289.025 768.833 289.025V291.025Z" fill="#747474"/>
<path d="M756.666 601.025C756.114 601.025 755.666 601.473 755.666 602.025C755.666 602.577 756.114 603.025 756.666 603.025V601.025ZM830.147 488.732C830.537 488.342 830.537 487.709 830.147 487.318L823.783 480.954C823.392 480.564 822.759 480.564 822.369 480.954C821.978 481.345 821.978 481.978 822.369 482.368L828.025 488.025L822.369 493.682C821.978 494.073 821.978 494.706 822.369 495.096C822.759 495.487 823.392 495.487 823.783 495.096L830.147 488.732ZM756.666 603.025H769.053V601.025H756.666V603.025ZM794.053 578.025V512.025H792.053V578.025H794.053ZM817.053 489.025H829.44V487.025H817.053V489.025ZM794.053 512.025C794.053 499.323 804.35 489.025 817.053 489.025V487.025C803.246 487.025 792.053 498.218 792.053 512.025H794.053ZM769.053 603.025C782.86 603.025 794.053 591.832 794.053 578.025H792.053C792.053 590.728 781.755 601.025 769.053 601.025V603.025Z" fill="#747474"/>
<path d="M794 562.955C793.448 562.955 793 563.403 793 563.955C793 564.507 793.448 564.955 794 564.955V562.955ZM830.147 564.662C830.537 564.272 830.537 563.639 830.147 563.248L823.783 556.884C823.392 556.494 822.759 556.494 822.368 556.884C821.978 557.275 821.978 557.908 822.368 558.298L828.025 563.955L822.368 569.612C821.978 570.003 821.978 570.636 822.368 571.026C822.759 571.417 823.392 571.417 823.783 571.026L830.147 564.662ZM794 564.955H813.72V562.955H794V564.955ZM813.72 564.955H829.439V562.955H813.72V564.955ZM812.72 563.955C812.72 564.507 813.167 564.955 813.72 564.955V562.955C814.272 562.955 814.72 563.403 814.72 563.955H812.72ZM813.72 564.955C813.136 564.955 812.72 564.475 812.72 563.955H814.72C814.72 563.435 814.304 562.955 813.72 562.955V564.955Z" fill="#747474"/>
<path d="M794 638.885C793.448 638.885 793 639.333 793 639.885C793 640.438 793.448 640.885 794 640.885V638.885ZM830.147 640.592C830.537 640.202 830.537 639.569 830.147 639.178L823.783 632.814C823.392 632.424 822.759 632.424 822.368 632.814C821.978 633.205 821.978 633.838 822.368 634.228L828.025 639.885L822.368 645.542C821.978 645.933 821.978 646.566 822.368 646.956C822.759 647.347 823.392 647.347 823.783 646.956L830.147 640.592ZM794 640.885H813.72V638.885H794V640.885ZM813.72 640.885H829.439V638.885H813.72V640.885ZM812.72 639.885C812.72 640.438 813.167 640.885 813.72 640.885V638.885C814.272 638.885 814.72 639.333 814.72 639.885H812.72ZM813.72 640.885C813.136 640.885 812.72 640.405 812.72 639.885H814.72C814.72 639.365 814.304 638.885 813.72 638.885V640.885Z" fill="#747474"/>
<path d="M756.666 601.025C756.114 601.025 755.666 601.473 755.666 602.025C755.666 602.577 756.114 603.025 756.666 603.025V601.025ZM829.707 716.522C830.098 716.132 830.098 715.499 829.707 715.108L823.343 708.744C822.953 708.354 822.32 708.354 821.929 708.744C821.539 709.135 821.539 709.768 821.929 710.158L827.586 715.815L821.929 721.472C821.539 721.863 821.539 722.496 821.929 722.886C822.32 723.277 822.953 723.277 823.343 722.886L829.707 716.522ZM756.666 603.025H768.833V601.025H756.666V603.025ZM791.833 626.025V691.815H793.833V626.025H791.833ZM816.833 716.815H829V714.815H816.833V716.815ZM791.833 691.815C791.833 705.622 803.026 716.815 816.833 716.815V714.815C804.131 714.815 793.833 704.518 793.833 691.815H791.833ZM768.833 603.025C781.536 603.025 791.833 613.323 791.833 626.025H793.833C793.833 612.218 782.64 601.025 768.833 601.025V603.025Z" fill="#747474"/>
<path d="M1003.42 487.025C1002.87 487.025 1002.42 487.473 1002.42 488.025C1002.42 488.577 1002.87 489.025 1003.42 489.025V487.025ZM1076.71 602.732C1077.1 602.342 1077.1 601.709 1076.71 601.318L1070.34 594.954C1069.95 594.564 1069.32 594.564 1068.93 594.954C1068.54 595.345 1068.54 595.978 1068.93 596.368L1074.59 602.025L1068.93 607.682C1068.54 608.073 1068.54 608.706 1068.93 609.096C1069.32 609.487 1069.95 609.487 1070.34 609.096L1076.71 602.732ZM1003.42 489.025H1015.71V487.025H1003.42V489.025ZM1038.71 512.025V578.025H1040.71V512.025H1038.71ZM1063.71 603.025H1076V601.025H1063.71V603.025ZM1038.71 578.025C1038.71 591.832 1049.9 603.025 1063.71 603.025V601.025C1051.01 601.025 1040.71 590.728 1040.71 578.025H1038.71ZM1015.71 489.025C1028.41 489.025 1038.71 499.323 1038.71 512.025H1040.71C1040.71 498.218 1029.52 487.025 1015.71 487.025V489.025Z" fill="#747474"/>
<path d="M1003.42 562.955C1002.87 562.955 1002.42 563.403 1002.42 563.955C1002.42 564.507 1002.87 564.955 1003.42 564.955V562.955ZM1039.13 564.662C1039.52 564.272 1039.52 563.638 1039.13 563.248L1032.77 556.884C1032.38 556.493 1031.74 556.493 1031.35 556.884C1030.96 557.275 1030.96 557.908 1031.35 558.298L1037.01 563.955L1031.35 569.612C1030.96 570.002 1030.96 570.636 1031.35 571.026C1031.74 571.417 1032.38 571.417 1032.77 571.026L1039.13 564.662ZM1003.42 564.955H1018.92V562.955H1003.42V564.955ZM1018.92 564.955H1038.42V562.955H1018.92V564.955ZM1019.92 563.955C1019.92 564.507 1019.48 564.955 1018.92 564.955V562.955C1018.37 562.955 1017.92 563.403 1017.92 563.955H1019.92ZM1018.92 564.955C1019.46 564.955 1019.92 564.519 1019.92 563.955H1017.92C1017.92 563.391 1018.38 562.955 1018.92 562.955V564.955Z" fill="#747474"/>
<path d="M1003.42 638.885C1002.87 638.885 1002.42 639.333 1002.42 639.885C1002.42 640.438 1002.87 640.885 1003.42 640.885V638.885ZM1039.13 640.592C1039.52 640.202 1039.52 639.569 1039.13 639.178L1032.77 632.814C1032.38 632.424 1031.74 632.424 1031.35 632.814C1030.96 633.205 1030.96 633.838 1031.35 634.228L1037.01 639.885L1031.35 645.542C1030.96 645.933 1030.96 646.566 1031.35 646.956C1031.74 647.347 1032.38 647.347 1032.77 646.956L1039.13 640.592ZM1003.42 640.885H1018.92V638.885H1003.42V640.885ZM1018.92 640.885H1038.42V638.885H1018.92V640.885ZM1019.92 639.885C1019.92 640.438 1019.48 640.885 1018.92 640.885V638.885C1018.37 638.885 1017.92 639.333 1017.92 639.885H1019.92ZM1018.92 640.885C1019.46 640.885 1019.92 640.449 1019.92 639.885H1017.92C1017.92 639.321 1018.38 638.885 1018.92 638.885V640.885Z" fill="#747474"/>
<path d="M1002.98 714.815C1002.43 714.815 1001.98 715.263 1001.98 715.815C1001.98 716.367 1002.43 716.815 1002.98 716.815V714.815ZM1076.71 602.732C1077.1 602.342 1077.1 601.709 1076.71 601.318L1070.34 594.954C1069.95 594.564 1069.32 594.564 1068.93 594.954C1068.54 595.345 1068.54 595.978 1068.93 596.368L1074.59 602.025L1068.93 607.682C1068.54 608.073 1068.54 608.706 1068.93 609.096C1069.32 609.487 1069.95 609.487 1070.34 609.096L1076.71 602.732ZM1002.98 716.815H1015.49V714.815H1002.98V716.815ZM1040.49 691.815V626.025H1038.49V691.815H1040.49ZM1063.49 603.025H1076V601.025H1063.49V603.025ZM1040.49 626.025C1040.49 613.323 1050.79 603.025 1063.49 603.025V601.025C1049.68 601.025 1038.49 612.218 1038.49 626.025H1040.49ZM1015.49 716.815C1029.3 716.815 1040.49 705.622 1040.49 691.815H1038.49C1038.49 704.518 1028.19 714.815 1015.49 714.815V716.815Z" fill="#747474"/>
<path d="M1002.98 213.025C1002.43 213.025 1001.98 213.473 1001.98 214.025C1001.98 214.577 1002.43 215.025 1002.98 215.025V213.025ZM1076.71 290.732C1077.1 290.342 1077.1 289.709 1076.71 289.318L1070.34 282.954C1069.95 282.564 1069.32 282.564 1068.93 282.954C1068.54 283.345 1068.54 283.978 1068.93 284.368L1074.59 290.025L1068.93 295.682C1068.54 296.073 1068.54 296.706 1068.93 297.096C1069.32 297.487 1069.95 297.487 1070.34 297.096L1076.71 290.732ZM1002.98 215.025H1015.49V213.025H1002.98V215.025ZM1038.49 238.025V266.025H1040.49V238.025H1038.49ZM1063.49 291.025H1076V289.025H1063.49V291.025ZM1038.49 266.025C1038.49 279.832 1049.68 291.025 1063.49 291.025V289.025C1050.79 289.025 1040.49 278.728 1040.49 266.025H1038.49ZM1015.49 215.025C1028.19 215.025 1038.49 225.323 1038.49 238.025H1040.49C1040.49 224.218 1029.3 213.025 1015.49 213.025V215.025Z" fill="#747474"/>
<path d="M1002.98 364.885C1002.43 364.885 1001.98 365.333 1001.98 365.885C1001.98 366.438 1002.43 366.885 1002.98 366.885V364.885ZM1076.71 290.732C1077.1 290.342 1077.1 289.709 1076.71 289.318L1070.34 282.954C1069.95 282.564 1069.32 282.564 1068.93 282.954C1068.54 283.345 1068.54 283.978 1068.93 284.368L1074.59 290.025L1068.93 295.682C1068.54 296.073 1068.54 296.706 1068.93 297.096C1069.32 297.487 1069.95 297.487 1070.34 297.096L1076.71 290.732ZM1002.98 366.885H1015.49V364.885H1002.98V366.885ZM1040.49 341.885V314.025H1038.49V341.885H1040.49ZM1063.49 291.025H1076V289.025H1063.49V291.025ZM1040.49 314.025C1040.49 301.323 1050.79 291.025 1063.49 291.025V289.025C1049.68 289.025 1038.49 300.218 1038.49 314.025H1040.49ZM1015.49 366.885C1029.3 366.885 1040.49 355.692 1040.49 341.885H1038.49C1038.49 354.588 1028.19 364.885 1015.49 364.885V366.885Z" fill="#747474"/>
<path d="M1002.98 288.955C1002.43 288.955 1001.98 289.403 1001.98 289.955C1001.98 290.507 1002.43 290.955 1002.98 290.955V288.955ZM1076.71 290.732C1077.1 290.342 1077.1 289.709 1076.71 289.318L1070.34 282.954C1069.95 282.564 1069.32 282.564 1068.93 282.954C1068.54 283.345 1068.54 283.978 1068.93 284.368L1074.59 290.025L1068.93 295.682C1068.54 296.073 1068.54 296.706 1068.93 297.096C1069.32 297.487 1069.95 297.487 1070.34 297.096L1076.71 290.732ZM1002.98 290.955H1039.46V288.955H1002.98V290.955ZM1039.53 291.025H1076V289.025H1039.53V291.025ZM1038.49 289.99C1038.49 290.562 1038.96 291.025 1039.53 291.025V289.025C1040.06 289.025 1040.49 289.457 1040.49 289.99H1038.49ZM1039.46 290.955C1038.92 290.955 1038.49 290.523 1038.49 289.99H1040.49C1040.49 289.418 1040.03 288.955 1039.46 288.955V290.955Z" fill="#747474"/>
<path d="M1249.98 289.025C1249.43 289.025 1248.98 289.473 1248.98 290.025C1248.98 290.577 1249.43 291.025 1249.98 291.025V289.025ZM1323.71 290.732C1324.1 290.342 1324.1 289.709 1323.71 289.318L1317.34 282.954C1316.95 282.564 1316.32 282.564 1315.93 282.954C1315.54 283.345 1315.54 283.978 1315.93 284.368L1321.59 290.025L1315.93 295.682C1315.54 296.073 1315.54 296.706 1315.93 297.096C1316.32 297.487 1316.95 297.487 1317.34 297.096L1323.71 290.732ZM1249.98 291.025H1323V289.025H1249.98V291.025Z" fill="#747474"/>
<path d="M1249.98 601.025C1249.43 601.025 1248.98 601.473 1248.98 602.025C1248.98 602.577 1249.43 603.025 1249.98 603.025V601.025ZM1323.71 602.732C1324.1 602.342 1324.1 601.709 1323.71 601.318L1317.34 594.954C1316.95 594.564 1316.32 594.564 1315.93 594.954C1315.54 595.345 1315.54 595.978 1315.93 596.368L1321.59 602.025L1315.93 607.682C1315.54 608.073 1315.54 608.706 1315.93 609.096C1316.32 609.487 1316.95 609.487 1317.34 609.096L1323.71 602.732ZM1249.98 603.025H1323V601.025H1249.98V603.025Z" fill="#747474"/>
<path d="M1496.98 289.025C1496.43 289.025 1495.98 289.473 1495.98 290.025C1495.98 290.577 1496.43 291.025 1496.98 291.025V289.025ZM1569.71 252.732C1570.1 252.342 1570.1 251.709 1569.71 251.318L1563.34 244.954C1562.95 244.564 1562.32 244.564 1561.93 244.954C1561.54 245.345 1561.54 245.978 1561.93 246.368L1567.59 252.025L1561.93 257.682C1561.54 258.073 1561.54 258.706 1561.93 259.096C1562.32 259.487 1562.95 259.487 1563.34 259.096L1569.71 252.732ZM1496.98 291.025H1513.99V289.025H1496.98V291.025ZM1551.99 253.025H1569V251.025H1551.99V253.025ZM1533.99 271.025C1533.99 261.084 1542.05 253.025 1551.99 253.025V251.025C1540.95 251.025 1531.99 259.979 1531.99 271.025H1533.99ZM1513.99 291.025C1525.04 291.025 1533.99 282.071 1533.99 271.025H1531.99C1531.99 280.966 1523.93 289.025 1513.99 289.025V291.025Z" fill="#747474"/>
<path d="M1496.98 289.025C1496.43 289.025 1495.98 289.473 1495.98 290.025C1495.98 290.577 1496.43 291.025 1496.98 291.025V289.025ZM1569.71 328.732C1570.1 328.342 1570.1 327.709 1569.71 327.318L1563.34 320.954C1562.95 320.564 1562.32 320.564 1561.93 320.954C1561.54 321.345 1561.54 321.978 1561.93 322.368L1567.59 328.025L1561.93 333.682C1561.54 334.073 1561.54 334.706 1561.93 335.096C1562.32 335.487 1562.95 335.487 1563.34 335.096L1569.71 328.732ZM1496.98 291.025H1513.99V289.025H1496.98V291.025ZM1551.99 329.025H1569V327.025H1551.99V329.025ZM1531.99 309.025C1531.99 320.071 1540.95 329.025 1551.99 329.025V327.025C1542.05 327.025 1533.99 318.966 1533.99 309.025H1531.99ZM1513.99 291.025C1523.93 291.025 1531.99 299.084 1531.99 309.025H1533.99C1533.99 297.979 1525.04 289.025 1513.99 289.025V291.025Z" fill="#747474"/>
<path d="M1496.98 601.025C1496.43 601.025 1495.98 601.473 1495.98 602.025C1495.98 602.577 1496.43 603.025 1496.98 603.025V601.025ZM1569.71 564.732C1570.1 564.342 1570.1 563.709 1569.71 563.318L1563.34 556.954C1562.95 556.564 1562.32 556.564 1561.93 556.954C1561.54 557.345 1561.54 557.978 1561.93 558.368L1567.59 564.025L1561.93 569.682C1561.54 570.073 1561.54 570.706 1561.93 571.096C1562.32 571.487 1562.95 571.487 1563.34 571.096L1569.71 564.732ZM1496.98 603.025H1513.99V601.025H1496.98V603.025ZM1551.99 565.025H1569V563.025H1551.99V565.025ZM1533.99 583.025C1533.99 573.084 1542.05 565.025 1551.99 565.025V563.025C1540.95 563.025 1531.99 571.979 1531.99 583.025H1533.99ZM1513.99 603.025C1525.04 603.025 1533.99 594.071 1533.99 583.025H1531.99C1531.99 592.966 1523.93 601.025 1513.99 601.025V603.025Z" fill="#747474"/>
<path d="M1496.98 601.025C1496.43 601.025 1495.98 601.473 1495.98 602.025C1495.98 602.577 1496.43 603.025 1496.98 603.025V601.025ZM1569.71 640.732C1570.1 640.342 1570.1 639.709 1569.71 639.318L1563.34 632.954C1562.95 632.564 1562.32 632.564 1561.93 632.954C1561.54 633.345 1561.54 633.978 1561.93 634.368L1567.59 640.025L1561.93 645.682C1561.54 646.073 1561.54 646.706 1561.93 647.096C1562.32 647.487 1562.95 647.487 1563.34 647.096L1569.71 640.732ZM1496.98 603.025H1513.99V601.025H1496.98V603.025ZM1551.99 641.025H1569V639.025H1551.99V641.025ZM1531.99 621.025C1531.99 632.071 1540.95 641.025 1551.99 641.025V639.025C1542.05 639.025 1533.99 630.966 1533.99 621.025H1531.99ZM1513.99 603.025C1523.93 603.025 1531.99 611.084 1531.99 621.025H1533.99C1533.99 609.979 1525.04 601.025 1513.99 601.025V603.025Z" fill="#747474"/>
<path d="M1250.02 971C1249.46 971 1249.02 971.448 1249.02 972C1249.02 972.552 1249.46 973 1250.02 973V971ZM1323.71 972.707C1324.1 972.317 1324.1 971.683 1323.71 971.293L1317.34 964.929C1316.95 964.538 1316.32 964.538 1315.93 964.929C1315.54 965.319 1315.54 965.953 1315.93 966.343L1321.59 972L1315.93 977.657C1315.54 978.047 1315.54 978.681 1315.93 979.071C1316.32 979.462 1316.95 979.462 1317.34 979.071L1323.71 972.707ZM1250.02 973H1323V971H1250.02V973Z" fill="#747474"/>
</svg>
